<?xml version="1.0"?>
<svg xmlns="http://www.w3.org/2000/svg" id="outline" viewBox="0 0 512 512" width="512" height="512"><title>deal-corporate-partnership-joint-venture</title><path d="M491.147,56.645a8.00136,8.00136,0,0,0-8.6709,1.56836l-176,168a7.99949,7.99949,0,0,0-.13281,11.44336l10.34314,10.34314-9.118,9.1178-62.37744,23.3916a7.9709,7.9709,0,0,0-.9375.43066l-6.59668-6.59668a7.99611,7.99611,0,0,0-4.34131-2.23437l-45.47119-7.57862-8.53064-8.53039,10.34314-10.34314a7.99986,7.99986,0,0,0,.26269-11.03809l-160-176A7.99986,7.99986,0,0,0,16,64V288a7.99877,7.99877,0,0,0,2.34326,5.65674l56,56a7.99945,7.99945,0,0,0,11.31348,0L96,339.31348l36.76666,36.7666a24.97507,24.97507,0,0,0,27.45044,39.49658A24.91351,24.91351,0,0,0,184,432.959a25.09037,25.09037,0,0,0,8.2171-1.38232,24.96492,24.96492,0,0,0,40.95874,10.53723,24.98,24.98,0,0,0,40.4809,7.54285l8-8a24.83945,24.83945,0,0,0,7.04413-14.06153l9.56231-2.125a34.23207,34.23207,0,0,0,16.80616-9.22607L400,331.31348l18.34326,18.34326a7.99945,7.99945,0,0,0,11.31348,0l64-64A7.99877,7.99877,0,0,0,496,280V64A8.0004,8.0004,0,0,0,491.147,56.645ZM80,332.68652l-48-48V84.69287l140.94922,155.044Zm72,68.28418a8.97072,8.97072,0,0,1-6.34326-15.314l16-16a8.97072,8.97072,0,0,1,12.68652,12.68652l-8,8-8,8A8.91226,8.91226,0,0,1,152,400.9707Zm25.65674,13.37256a8.98111,8.98111,0,0,1,0-12.68652l8-8a8.97072,8.97072,0,0,1,12.68652,12.68652l-8,8A8.982,8.982,0,0,1,177.65674,414.34326Zm44.68652,16a8.97072,8.97072,0,0,1-12.68652-12.68652l8-8a8.97072,8.97072,0,0,1,12.68652,12.68652Zm48,0-8,8a8.97072,8.97072,0,0,1-12.68652-12.68652l8-8a8.97072,8.97072,0,0,1,12.68652,12.68652Zm24.44922-20.49219-8.98419,1.99659a24.94746,24.94746,0,0,0-38.98413-5.96155,24.94688,24.94688,0,0,0-31.04126-13.46277,24.8999,24.8999,0,0,0-22.84619-17.36011,24.95341,24.95341,0,0,0-42.59345-16.72L144,364.68652,107.31348,328,168,267.31348l10.34326,10.34326a7.99611,7.99611,0,0,0,4.34131,2.23437l45.47119,7.57862,4.53058,4.53051-28.45441,28.45435A21.97293,21.97293,0,0,0,226.729,356.85645l37.78516-12.59522,4.63525.92725c.29615.0592.59272.10815.889.16345l33.71741,33.71741a18.28656,18.28656,0,0,1-8.96338,30.78173Zm29.4563-25.41333a34.07058,34.07058,0,0,0-9.17944-16.68188l-21.87507-21.875a71.28744,71.28744,0,0,0,40.46247-20.22412l-11.31348-11.31348A55.31437,55.31437,0,0,1,272.28711,329.499l-6.71826-1.34375a7.99316,7.99316,0,0,0-4.09864.25537l-39.80078,13.26709a5.98475,5.98475,0,0,1-6.124-9.90966l36.88623-36.88575,62.37744-23.3916a7.99739,7.99739,0,0,0,2.84766-1.834L328,259.31348,388.68652,320ZM480,276.68652l-56,56L323.44678,232.1333,480,82.6958Z"/></svg>
