<svg id="Capa_1" enable-background="new 0 0 511.111 511.111" height="512" viewBox="0 0 511.111 511.111" width="512" xmlns="http://www.w3.org/2000/svg"><path d="m500.44 420.624h-16.889v-232.919c0-10.767-8.759-19.525-19.526-19.525h-44.684c-4.142 0-7.5 3.357-7.5 7.5s3.358 7.5 7.5 7.5h44.684c2.496 0 4.526 2.03 4.526 4.525v232.919h-45.539c-4.142 0-7.5 3.357-7.5 7.5s3.358 7.5 7.5 7.5h73.099v14.457c0 8.756-7.123 15.879-15.878 15.879h-449.354c-8.756 0-15.879-7.123-15.879-15.879v-14.457h148.66l2.235 9.699c1.759 7.636 8.46 12.969 16.296 12.969h146.73c7.836 0 14.537-5.333 16.296-12.969l2.235-9.699h45.129c4.142 0 7.5-3.357 7.5-7.5s-3.358-7.5-7.5-7.5h-51.097-171.856-126.31v-232.919c0-2.495 2.03-4.525 4.526-4.525h42.291c4.142 0 7.5-3.357 7.5-7.5s-3.358-7.5-7.5-7.5h-42.291c-10.767 0-19.526 8.759-19.526 19.525v232.919h-17.647c-5.884 0-10.671 4.787-10.671 10.671v18.786c0 17.026 13.852 30.879 30.879 30.879h449.354c17.026 0 30.878-13.853 30.878-30.879v-18.786c0-5.884-4.787-10.671-10.671-10.671zm-168.381 15-1.459 6.332c-.181.786-.872 1.336-1.679 1.336h-146.73c-.807 0-1.498-.55-1.679-1.337l-1.459-6.331z"/><path d="m90.135 208.179c4.142 0 7.5-3.357 7.5-7.5s-3.358-7.5-7.5-7.5h-29.317c-4.142 0-7.5 3.357-7.5 7.5v202.445c0 4.143 3.358 7.5 7.5 7.5h390.233c4.142 0 7.5-3.357 7.5-7.5v-202.445c0-4.143-3.358-7.5-7.5-7.5h-31.709c-4.142 0-7.5 3.357-7.5 7.5s3.358 7.5 7.5 7.5h24.209v187.445h-375.233v-187.445z"/><path d="m176.689 279.252c-3.285-2.525-7.992-1.909-10.517 1.376-2.524 3.284-1.908 7.992 1.375 10.517 3.05 2.345 6.235 4.597 9.465 6.693 1.261.818 2.677 1.21 4.077 1.21 2.455 0 4.861-1.205 6.298-3.417 2.255-3.475 1.267-8.119-2.208-10.375-2.897-1.881-5.754-3.902-8.49-6.004z"/><path d="m133.531 111.782c1.2.712 2.519 1.051 3.82 1.051 2.561 0 5.055-1.312 6.457-3.674 3.567-6.012 7.656-11.785 12.153-17.16 2.658-3.177 2.237-7.907-.94-10.564-3.176-2.658-7.907-2.238-10.565.939-5.012 5.991-9.571 12.428-13.548 19.131-2.114 3.562-.94 8.163 2.623 10.277z"/><path d="m165.798 78.833c1.74 0 3.488-.603 4.907-1.831 5.295-4.585 10.996-8.773 16.945-12.448 3.524-2.177 4.617-6.798 2.44-10.322s-6.798-4.618-10.322-2.439c-6.63 4.095-12.984 8.762-18.884 13.872-3.131 2.711-3.471 7.448-.759 10.579 1.484 1.712 3.573 2.589 5.673 2.589z"/><path d="m119.624 153.934c.529.113 1.058.168 1.578.168 3.461 0 6.572-2.41 7.326-5.931 1.466-6.845 3.502-13.615 6.05-20.124 1.511-3.856-.392-8.208-4.249-9.718-3.857-1.509-8.208.392-9.718 4.249-2.844 7.261-5.115 14.814-6.75 22.45-.868 4.052 1.712 8.038 5.763 8.906z"/><path d="m118.926 198.366c.272 0 .548-.016.826-.046 4.117-.45 7.09-4.153 6.639-8.271-.515-4.702-.776-9.498-.776-14.257 0-2.172.055-4.376.162-6.543l.014-.278c.183-4.138-3.022-7.642-7.161-7.824-4.145-.214-7.642 3.022-7.825 7.16l-.009.192c-.12 2.421-.181 4.875-.181 7.293 0 5.302.291 10.647.865 15.89.42 3.839 3.67 6.684 7.446 6.684z"/><path d="m362.588 251.255c-4.054 5.698-8.606 11.115-13.53 16.103-2.91 2.948-2.88 7.696.067 10.606 1.462 1.443 3.366 2.163 5.269 2.163 1.936 0 3.871-.745 5.337-2.23 5.487-5.558 10.56-11.595 15.078-17.944 2.401-3.375 1.612-8.058-1.763-10.46-3.374-2.402-8.056-1.613-10.458 1.762z"/><path d="m247.15 45.45c5.082-.343 10.282-.391 15.436-.138 1.856.091 3.742.224 5.604.395.233.021.464.032.693.032 3.833-.001 7.104-2.925 7.46-6.816.378-4.125-2.66-7.775-6.784-8.153-2.072-.189-4.17-.338-6.236-.439-5.73-.282-11.525-.229-17.186.155-4.132.279-7.256 3.856-6.977 7.988.28 4.132 3.849 7.247 7.99 6.976z"/><path d="m130.36 210.682c-1.11-3.99-5.243-6.332-9.235-5.216-3.991 1.109-6.326 5.245-5.216 9.235 2.089 7.513 4.813 14.916 8.092 22.004 1.268 2.74 3.979 4.353 6.812 4.353 1.054 0 2.125-.224 3.145-.695 3.759-1.74 5.396-6.197 3.657-9.957-2.941-6.354-5.382-12.99-7.255-19.724z"/><path d="m386.63 172.079c.031 1.158.046 2.32.046 3.486 0 2.172-.055 4.376-.162 6.552-.181 3.667-.518 7.36-1 10.978-.548 4.105 2.336 7.878 6.442 8.427.337.045.671.066 1.001.066 3.701 0 6.922-2.74 7.425-6.509.538-4.028.912-8.141 1.114-12.221.12-2.421.181-4.875.181-7.293 0-1.299-.017-2.592-.051-3.881-.109-4.141-3.59-7.406-7.695-7.3-4.142.109-7.41 3.554-7.301 7.695z"/><path d="m378.799 130.928c2.401 6.57 4.281 13.385 5.587 20.256.684 3.596 3.829 6.1 7.36 6.1.464 0 .936-.043 1.409-.133 4.069-.774 6.741-4.7 5.967-8.77-1.458-7.666-3.556-15.271-6.234-22.602-1.422-3.892-5.729-5.893-9.619-4.47-3.891 1.421-5.892 5.728-4.47 9.619z"/><path d="m137.539 246.703c-3.431 2.32-4.331 6.983-2.01 10.414 4.371 6.462 9.297 12.618 14.642 18.298 1.476 1.568 3.467 2.36 5.463 2.36 1.843 0 3.69-.675 5.138-2.038 3.017-2.838 3.161-7.585.322-10.602-4.797-5.098-9.218-10.623-13.141-16.423-2.321-3.431-6.983-4.329-10.414-2.009z"/><path d="m327.255 66.198c5.859 3.813 11.459 8.138 16.645 12.853 1.437 1.306 3.243 1.95 5.043 1.95 2.04 0 4.072-.827 5.552-2.455 2.787-3.064 2.561-7.808-.504-10.595-5.78-5.254-12.021-10.073-18.553-14.325-3.471-2.259-8.117-1.277-10.377 2.194-2.26 3.472-1.277 8.118 2.194 10.378z"/><path d="m376.779 243.237c1.064.522 2.191.771 3.302.771 2.77 0 5.433-1.541 6.737-4.194 3.443-7.008 6.337-14.349 8.601-21.818 1.201-3.965-1.039-8.152-5.002-9.354-3.962-1.203-8.151 1.037-9.353 5.003-2.029 6.694-4.622 13.273-7.708 19.554-1.828 3.717-.294 8.211 3.423 10.038z"/><path d="m203.499 55.556c.955 0 1.925-.184 2.862-.57 6.466-2.673 13.197-4.835 20.008-6.428 4.033-.942 6.539-4.977 5.596-9.01-.943-4.034-4.977-6.54-9.011-5.596-7.599 1.776-15.109 4.188-22.322 7.17-3.828 1.583-5.649 5.969-4.066 9.797 1.194 2.89 3.988 4.637 6.933 4.637z"/><path d="m370.016 111.841c1.376 2.449 3.923 3.827 6.545 3.827 1.244 0 2.505-.31 3.667-.963 3.611-2.028 4.894-6.601 2.865-10.212-3.818-6.795-8.22-13.336-13.083-19.44-2.581-3.241-7.299-3.775-10.539-1.193-3.24 2.58-3.774 7.299-1.193 10.539 4.364 5.477 8.313 11.346 11.738 17.442z"/><path d="m288.901 49.301c6.781 1.75 13.464 4.067 19.864 6.889.984.434 2.011.639 3.021.639 2.882 0 5.63-1.671 6.867-4.478 1.671-3.79-.048-8.217-3.838-9.888-7.143-3.147-14.601-5.733-22.166-7.686-4.011-1.04-8.101 1.377-9.136 5.388s1.377 8.102 5.388 9.136z"/><path d="m332.97 281.209c-2.794 2.037-5.701 3.984-8.64 5.788-3.53 2.166-4.635 6.785-2.469 10.315 1.416 2.306 3.877 3.577 6.399 3.577 1.337 0 2.692-.358 3.916-1.109 3.275-2.01 6.515-4.181 9.629-6.45 3.347-2.439 4.083-7.131 1.643-10.479-2.438-3.346-7.131-4.083-10.478-1.642z"/><path d="m256.146 253.205c42.748 0 77.526-34.777 77.526-77.525s-34.778-77.526-77.526-77.526-77.526 34.778-77.526 77.526 34.777 77.525 77.526 77.525zm-46.016-97.023c3.866-2.041 8.157-3.787 12.769-5.224-1.103 7.853-1.679 16.186-1.679 24.722s.576 16.869 1.679 24.721c-4.613-1.437-8.903-3.183-12.77-5.224-10.492-5.537-16.51-12.644-16.51-19.497.001-6.855 6.019-13.961 16.511-19.498zm46.016-43.029c4.15 0 9.409 6.836 13.482 18.727-4.371-.423-8.87-.655-13.482-.655s-9.111.232-13.482.655c4.073-11.891 9.332-18.727 13.482-18.727zm0 33.072c6.004 0 11.865.426 17.474 1.231 1.517 8.248 2.451 17.742 2.451 28.224 0 10.481-.934 19.975-2.451 28.223-5.609.806-11.47 1.231-17.474 1.231s-11.865-.426-17.474-1.231c-1.517-8.248-2.451-17.742-2.451-28.223s.934-19.976 2.451-28.224c5.608-.806 11.469-1.231 17.474-1.231zm62.525 29.455c0 6.854-6.018 13.96-16.51 19.497-3.866 2.041-8.157 3.787-12.77 5.224 1.103-7.852 1.679-16.185 1.679-24.721s-.576-16.869-1.679-24.722c4.613 1.437 8.903 3.183 12.769 5.224 10.493 5.537 16.511 12.643 16.511 19.498zm-62.525 62.525c-4.15 0-9.409-6.835-13.483-18.727 4.371.423 8.87.655 13.483.655s9.111-.232 13.483-.655c-4.075 11.892-9.334 18.727-13.483 18.727zm-53.408-30.045c6.747 3.642 14.656 6.585 23.429 8.639 1.047 3.946 2.249 7.675 3.603 11.131.758 1.937 1.562 3.762 2.401 5.488-12.269-5.113-22.574-14.022-29.433-25.258zm77.382 25.258c.84-1.727 1.643-3.552 2.401-5.488 1.354-3.456 2.556-7.185 3.603-11.131 8.773-2.054 16.682-4.997 23.429-8.639-6.859 11.236-17.164 20.145-29.433 25.258zm29.433-90.219c-6.747-3.643-14.656-6.585-23.429-8.64-1.047-3.945-2.249-7.675-3.603-11.131-.758-1.937-1.562-3.762-2.401-5.488 12.269 5.114 22.575 14.022 29.433 25.259zm-77.382-25.259c-.84 1.727-1.643 3.552-2.401 5.488-1.354 3.456-2.556 7.186-3.603 11.131-8.773 2.054-16.683 4.997-23.429 8.64 6.858-11.237 17.164-20.145 29.433-25.259z"/><path d="m254.575 67.397c-28.102.398-54.636 11.616-74.715 31.584-20.08 19.971-31.439 46.443-31.987 74.541-.277 14.223 2.163 28.099 7.252 41.242 1.496 3.863 5.842 5.783 9.702 4.286 3.863-1.496 5.782-5.84 4.286-9.702-4.382-11.316-6.482-23.271-6.244-35.533.471-24.188 10.262-46.986 27.567-64.198 17.305-17.21 40.159-26.878 64.35-27.222 25.188-.34 48.931 9.177 66.853 26.846 17.926 17.673 27.798 41.268 27.798 66.438 0 35.158-19.45 66.981-50.76 83.051-7.638 3.92-12.383 11.659-12.383 20.196v20.104h-61.481v-20.716c0-8.433-4.639-16.115-12.105-20.051-11.201-5.904-20.95-13.901-28.977-23.77-2.614-3.215-7.338-3.699-10.551-1.086-3.213 2.614-3.7 7.338-1.086 10.551 9.31 11.445 20.621 20.723 33.62 27.574 2.529 1.333 4.1 3.932 4.1 6.781v20.716h-1.747c-4.142 0-7.5 3.357-7.5 7.5v16.982c0 7.686 6.253 13.938 13.938 13.938h7.617v15.26c0 11.965 9.733 21.698 21.698 21.698h23.226c11.964 0 21.698-9.733 21.698-21.698v-15.26h7.617c7.686 0 13.938-6.252 13.938-13.938v-16.982c0-4.143-3.358-7.5-7.5-7.5h-1.504v-20.104c0-2.887 1.622-5.512 4.232-6.852 36.337-18.649 58.911-55.586 58.911-96.396 0-29.217-11.459-56.604-32.267-77.119-20.803-20.509-48.331-31.609-77.596-31.161zm19.17 285.312c0 3.693-3.004 6.698-6.698 6.698h-23.226c-3.693 0-6.698-3.005-6.698-6.698v-15.26h36.621v15.26zm21.556-30.26h-14.056-51.621-14.056v-8.42h1.747 76.481 1.504v8.42z"/></svg>