<svg id="Layer_1" data-name="Layer 1" xmlns="http://www.w3.org/2000/svg" viewBox="0 0 1931.2 1914.06"><defs><style>.cls-1{fill:#08bdfd;}.cls-2{fill:#ff916d;}.cls-3{fill:#e96a40;}.cls-4{fill:#ffe283;}.cls-5{fill:#fdd553;}.cls-6{fill:#ffc300;}</style></defs><path class="cls-1" d="M990,1082,294.26,1465.91c-75.64,41.75-74.92,157.1,1.23,197.75l700,373.86c130.91,69.91,285.2,69.91,416.11,0l700-373.86c76.17-40.69,76.89-156,1.22-197.75L1417.07,1082C1283.22,1008.11,1123.89,1008.11,990,1082Z" transform="translate(-237.95 -175.89)"/><path class="cls-2" d="M990,656.62l-695.78,384c-75.64,41.75-74.92,157.06,1.23,197.71l700,373.86c130.91,69.91,285.2,69.91,416.11,0l700-373.86c76.17-40.65,76.89-156,1.22-197.71l-695.75-384C1283.22,582.77,1123.89,582.77,990,656.62Z" transform="translate(-237.95 -175.89)"/><path class="cls-3" d="M1411.61,1612.17l491-262.24-485.55-268c-133.89-73.86-293.18-73.86-427,0l-485.58,268,491,262.24C1126.41,1682.08,1280.7,1682.08,1411.61,1612.17Z" transform="translate(-237.95 -175.89)"/><path class="cls-4" d="M990,231.29l-695.76,384C218.64,657,219.36,772.31,295.5,813l700,373.86c130.91,69.91,285.16,69.91,416.07,0l352.72-188.39L2111.6,813c76.17-40.69,71.8-139.16,1.26-197.76L1654.17,362.13l-237.1-130.84C1283.22,157.42,1123.93,157.42,990,231.29Z" transform="translate(-237.95 -175.89)"/><path class="cls-5" d="M1411.61,1186.86l491-262.29-485.55-268c-133.89-73.87-293.18-73.87-427,0l-485.58,268,491,262.29C1126.41,1256.77,1280.7,1256.77,1411.61,1186.86Z" transform="translate(-237.95 -175.89)"/><path class="cls-6" d="M1411.61,1186.86l99.33-53.1L1417.07,1082c-133.85-73.86-293.18-73.86-427,0l-93.88,51.79,99.34,53.1C1126.41,1256.77,1280.7,1256.77,1411.61,1186.86Z" transform="translate(-237.95 -175.89)"/></svg>